<svg xmlns="http://www.w3.org/2000/svg" xmlns:xlink="http://www.w3.org/1999/xlink" width="500" zoomAndPan="magnify" viewBox="0 0 375 74.999997" height="100" preserveAspectRatio="xMidYMid meet" version="1.0"><defs><g/><clipPath id="9d13f1857a"><path d="M 186.699219 1.121094 L 372.273438 1.121094 L 372.273438 74.679688 L 186.699219 74.679688 Z M 186.699219 1.121094 " clip-rule="nonzero"/></clipPath><clipPath id="69bfe28c7f"><path d="M 1.128906 1.121094 L 186.699219 1.121094 L 186.699219 74.679688 L 1.128906 74.679688 Z M 1.128906 1.121094 " clip-rule="nonzero"/></clipPath></defs><g clip-path="url(#9d13f1857a)"><path fill="#000000" d="M 186.699219 1.121094 L 372.316406 1.121094 L 372.316406 74.679688 L 186.699219 74.679688 Z M 186.699219 1.121094 " fill-opacity="1" fill-rule="nonzero"/></g><g clip-path="url(#69bfe28c7f)"><path fill="#000000" d="M 1.128906 1.121094 L 186.742188 1.121094 L 186.742188 74.679688 L 1.128906 74.679688 Z M 1.128906 1.121094 " fill-opacity="1" fill-rule="nonzero"/></g><g fill="#b30033" fill-opacity="1"><g transform="translate(40.236521, 50.906568)"><g><path d="M 20.1875 -19.226562 L 20.1875 -24.992188 L 0.960938 -24.992188 L 0.960938 0 L 20.1875 0 L 20.1875 -5.769531 L 8.652344 -5.769531 L 8.652344 -19.226562 Z M 20.1875 -9.613281 L 20.1875 -15.378906 L 10.574219 -15.378906 L 10.574219 -9.613281 Z M 20.1875 -9.613281 "/></g></g></g><g fill="#b30033" fill-opacity="1"><g transform="translate(64.688507, 50.906568)"><g><path d="M 0.960938 0 L 8.652344 0 L 8.652344 -19.226562 L 12.496094 -19.226562 L 12.496094 1.921875 L 20.1875 0 L 20.1875 -19.226562 L 24.03125 -19.226562 L 24.03125 0 L 31.722656 0 L 31.722656 -24.992188 L 0.960938 -24.992188 Z M 0.960938 0 "/></g></g></g><g fill="#b30033" fill-opacity="1"><g transform="translate(100.673649, 50.906568)"><g><path d="M 20.1875 -19.226562 L 20.1875 -24.992188 L 0.960938 -24.992188 L 0.960938 -9.613281 L 12.496094 -9.613281 L 12.496094 -5.769531 L 8.652344 -5.769531 L 8.652344 -7.691406 L 0.960938 -5.769531 L 0.960938 0 L 20.1875 0 L 20.1875 -15.378906 L 8.652344 -15.378906 L 8.652344 -19.226562 L 12.496094 -19.226562 L 12.496094 -17.304688 Z M 20.1875 -19.226562 "/></g></g></g><g fill="#b30033" fill-opacity="1"><g transform="translate(125.125633, 50.906568)"><g><path d="M 20.1875 1.921875 L 20.1875 -15.378906 L 12.496094 -13.457031 L 12.496094 -5.769531 L 8.652344 -5.769531 L 8.652344 -19.226562 L 20.1875 -19.226562 L 20.1875 -24.992188 L 0.960938 -24.992188 L 0.960938 0 L 12.496094 0 L 12.496094 1.921875 Z M 20.1875 1.921875 "/></g></g></g><g fill="#ffffff" fill-opacity="1"><g transform="translate(212.886444, 50.906568)"><g><path d="M 0.960938 0 L 20.1875 0 L 20.1875 -28.839844 L 12.496094 -26.914062 L 12.496094 -24.992188 L 0.960938 -24.992188 Z M 8.652344 -5.769531 L 8.652344 -19.226562 L 12.496094 -19.226562 L 12.496094 -5.769531 Z M 8.652344 -5.769531 "/></g></g></g><g fill="#ffffff" fill-opacity="1"><g transform="translate(237.33843, 50.906568)"><g><path d="M 20.1875 -19.226562 L 20.1875 -24.992188 L 0.960938 -24.992188 L 0.960938 0 L 20.1875 0 L 20.1875 -5.769531 L 8.652344 -5.769531 L 8.652344 -19.226562 Z M 20.1875 -9.613281 L 20.1875 -15.378906 L 10.574219 -15.378906 L 10.574219 -9.613281 Z M 20.1875 -9.613281 "/></g></g></g><g fill="#ffffff" fill-opacity="1"><g transform="translate(261.790416, 50.906568)"><g><path d="M 20.1875 -19.226562 L 20.1875 -24.992188 L 0.960938 -24.992188 L 0.960938 -9.613281 L 12.496094 -9.613281 L 12.496094 -5.769531 L 8.652344 -5.769531 L 8.652344 -7.691406 L 0.960938 -5.769531 L 0.960938 0 L 20.1875 0 L 20.1875 -15.378906 L 8.652344 -15.378906 L 8.652344 -19.226562 L 12.496094 -19.226562 L 12.496094 -17.304688 Z M 20.1875 -19.226562 "/></g></g></g><g fill="#ffffff" fill-opacity="1"><g transform="translate(286.242401, 50.906568)"><g><path d="M 0.960938 -32.683594 L 0.960938 -26.914062 L 8.652344 -26.914062 L 8.652344 -32.683594 Z M 0.960938 0 L 8.652344 0 L 8.652344 -24.992188 L 0.960938 -24.992188 Z M 0.960938 0 "/></g></g></g><g fill="#ffffff" fill-opacity="1"><g transform="translate(299.161233, 50.906568)"><g><path d="M 20.1875 1.921875 L 20.1875 -15.378906 L 12.496094 -13.457031 L 12.496094 -5.769531 L 8.652344 -5.769531 L 8.652344 -19.226562 L 20.1875 -19.226562 L 20.1875 -24.992188 L 0.960938 -24.992188 L 0.960938 0 L 12.496094 0 L 12.496094 1.921875 Z M 20.1875 1.921875 "/></g></g></g><g fill="#ffffff" fill-opacity="1"><g transform="translate(323.613221, 50.906568)"><g><path d="M 0.960938 0 L 8.652344 0 L 8.652344 -19.226562 L 12.496094 -19.226562 L 12.496094 1.921875 L 20.1875 0 L 20.1875 -24.992188 L 0.960938 -24.992188 Z M 0.960938 0 "/></g></g></g><path stroke-linecap="butt" transform="matrix(0.75, 0, 0, 0.75, 1.124189, 0.804291)" fill="none" stroke-linejoin="miter" d="M 0.00108174 3.000528 L 494.865705 3.000528 " stroke="#ffffff" stroke-width="6" stroke-opacity="1" stroke-miterlimit="4"/><path stroke-linecap="butt" transform="matrix(0.75, 0, 0, 0.75, 1.129765, 70.499993)" fill="none" stroke-linejoin="miter" d="M -0.0011451 3.000009 L 494.863479 3.000009 " stroke="#ffffff" stroke-width="6" stroke-opacity="1" stroke-miterlimit="4"/><path stroke-linecap="butt" transform="matrix(0, -0.75, 0.75, 0, 369.585563, 74.673238)" fill="none" stroke-linejoin="miter" d="M 0.00181694 3.0005 L 98.07995 3.0005 " stroke="#ffffff" stroke-width="6" stroke-opacity="1" stroke-miterlimit="4"/><path stroke-linecap="butt" transform="matrix(0, -0.75, 0.75, 0, 0.902957, 74.673238)" fill="none" stroke-linejoin="miter" d="M 0.00181694 2.999183 L 98.07995 2.999183 " stroke="#ffffff" stroke-width="6" stroke-opacity="1" stroke-miterlimit="4"/><path stroke-linecap="butt" transform="matrix(0, -0.75, 0.75, 0, 184.445383, 74.675573)" fill="none" stroke-linejoin="miter" d="M -0.000277798 2.999906 L 98.077855 2.999906 " stroke="#ffffff" stroke-width="6" stroke-opacity="1" stroke-miterlimit="4"/></svg>